<svg width="36" height="36" fill="none" xmlns="http://www.w3.org/2000/svg"><path d="m11.22 27.06 3.72-3.72a11.43 11.43 0 0 1-3.51-1.64 1.44 1.44 0 0 1 1.65-2.36 8.58 8.58 0 0 0 9.86 0c.24-.18.53-.27.82-.27a1.44 1.44 0 0 1 .82 2.62 11.4 11.4 0 0 1-3.52 1.65l3.72 3.72c.56.57.56 1.47 0 2.04a1.44 1.44 0 0 1-2.04 0L18 24.36l-4.74 4.74a1.44 1.44 0 1 1-2.04-2.04Z" fill="#fff"/><path fill-rule="evenodd" clip-rule="evenodd" d="M12.24 12.24a5.76 5.76 0 1 0 11.52 0 5.76 5.76 0 0 0-11.52 0Zm3.72-2.04a2.88 2.88 0 1 1 4.08 4.08 2.88 2.88 0 0 1-4.08-4.08Z" fill="#fff"/></svg>