<svg width="14" height="15" fill="none" xmlns="http://www.w3.org/2000/svg"><path fill-rule="evenodd" clip-rule="evenodd" d="M2.84 2.3c-.12 0-.24.02-.36.05a3.04 3.04 0 0 0-.6-.9C1.5 1.07.88.9 0 .9v1.4c.53 0 .83.08.9.15.27.26.5.8.5 1.25v.1l.69 4.8A2.18 2.18 0 0 0 0 10.67v.73a2.2 2.2 0 0 0 2.05 2.1h.16a2.1 2.1 0 0 0 3.95 0h1.63a2.1 2.1 0 0 0 4.07-.7 2.1 2.1 0 0 0-4.07-.7H6.16a2.1 2.1 0 0 0-3.95 0H2.1c-.35-.02-.67-.34-.7-.74v-.66a.77.77 0 0 1 .74-.7h8.41l.1-.03c.54-.17.96-.57 1.16-1.08l.07-.15.24-.47a969.78 969.78 0 0 0 1.78-3.58c.42-.94-.43-1.67-1.3-1.69l-9.75-.7Zm7.46 6.3H3.57a.12.12 0 0 1-.09-.1L2.8 3.7l9.68.7-.88 1.77-.01.02-.72 1.44-.24.48-.1.18-.03.08c-.03.1-.1.18-.2.23Zm-.54 4.9a.7.7 0 1 0 0-1.4.7.7 0 0 0 0 1.4Zm-4.88-.7a.7.7 0 1 1-1.4 0 .7.7 0 0 1 1.4 0Z" fill="#fff"/></svg>