<svg width="16" height="17" fill="none" xmlns="http://www.w3.org/2000/svg"><path fill-rule="evenodd" clip-rule="evenodd" d="M7.09 5.46c.41-.56.56-1.15.1-1.67A25.55 25.55 0 0 0 4.97.97a2.17 2.17 0 0 0-2.96 0c-.4.38-.53.52-.93.93-2.24 2.24-.88 6.99 2.76 10.63 3.64 3.64 8.39 5.01 10.64 2.76l.93-.93c.72-.76.83-2.09 0-2.95a23.9 23.9 0 0 0-2.83-2.21c-.47-.42-1.03-.33-1.54 0-.24.17-.42.33-.76.67l-.61.61c-.08.08-1.18-.47-2.24-1.53C6.37 7.88 5.82 6.78 5.9 6.7l.62-.6a11.92 11.92 0 0 0 .57-.64Zm3.72 6.15.61-.61c.19-.19.3-.3.4-.38 1.35.96 2.13 1.57 2.45 1.9.19.2.16.56 0 .74l-.9.9c-1.46 1.45-5.29.34-8.39-2.76-3.1-3.1-4.2-6.93-2.76-8.38l.92-.91c.15-.15.54-.18.72 0 .34.33.97 1.15 1.9 2.44a3.38 3.38 0 0 1-.37.41l-.62.61c-1.04 1.05-.15 2.82 1.54 4.5 1.68 1.7 3.46 2.58 4.5 1.54ZM9.33.44a7.6 7.6 0 0 1 6.62 6.62l-1.58.26a6 6 0 0 0-5.3-5.3L9.32.44ZM8.8 3.6A4.4 4.4 0 0 1 12.8 7.6l-1.59.26A2.8 2.8 0 0 0 8.54 5.2L8.8 3.6Z" fill="#293449"/></svg>